<?xml version="1.0" standalone="no"?>
<!DOCTYPE svg PUBLIC "-//W3C//DTD SVG 20010904//EN"
 "http://www.w3.org/TR/2001/REC-SVG-20010904/DTD/svg10.dtd">
<svg version="1.0" xmlns="http://www.w3.org/2000/svg"
 width="1280.000000pt" height="905.000000pt" viewBox="0 0 1280.000000 905.000000"
 preserveAspectRatio="xMidYMid meet">
<g transform="translate(0.000000,905.000000) scale(0.100000,-0.100000)"
fill="#000000" stroke="none">
<path d="M4104 6630 c-12 -4 -24 -16 -28 -25 -6 -17 -22 -262 -136 -2170 -34
-561 -66 -1024 -71 -1029 -6 -6 -12 -6 -18 0 -5 5 -26 245 -45 534 -20 289
-39 543 -44 565 -6 37 -10 40 -54 53 -31 8 -54 10 -64 4 -9 -5 -60 -78 -113
-163 -79 -127 -100 -155 -122 -157 -20 -2 -54 22 -170 123 -184 159 -174 158
-362 48 l-132 -78 -668 -5 c-654 -5 -669 -5 -684 -25 -18 -24 -12 -103 8 -116
8 -5 321 -8 704 -6 l690 2 85 51 c121 74 148 86 171 79 11 -4 93 -70 181 -147
158 -137 162 -140 200 -135 49 7 60 16 114 99 44 69 67 82 85 48 10 -18 159
-2158 159 -2277 0 -94 7 -103 83 -103 70 0 75 12 75 165 0 72 21 468 46 880
26 413 73 1190 105 1729 37 605 64 983 70 989 7 7 14 7 20 2 5 -6 55 -374 110
-819 56 -446 104 -820 107 -833 7 -26 34 -36 90 -31 l39 3 125 218 c69 121
134 223 143 229 24 13 38 0 98 -89 27 -40 58 -77 68 -83 29 -15 1615 -14 1644
2 12 6 54 37 93 70 67 55 95 67 120 50 7 -4 60 -83 119 -177 153 -243 146
-235 205 -235 47 0 51 2 75 40 13 21 46 82 72 134 71 144 96 139 107 -22 53
-732 176 -2185 186 -2197 14 -17 66 -20 104 -5 17 6 27 19 30 42 3 18 15 193
26 388 11 195 45 787 75 1315 30 528 68 1188 84 1467 16 278 32 511 36 517 9
15 22 14 29 -4 3 -8 51 -365 106 -793 55 -427 104 -788 109 -802 9 -30 44 -50
88 -50 41 0 48 10 166 247 53 105 101 194 107 198 22 13 49 -8 114 -90 37 -47
73 -85 79 -85 7 0 581 0 1277 0 1268 0 1929 7 1951 20 19 12 23 92 6 115 -15
20 -25 20 -1580 16 -1171 -3 -1569 -1 -1585 8 -12 6 -63 63 -113 126 -50 64
-99 119 -109 125 -10 5 -36 6 -61 2 l-43 -7 -72 -138 c-39 -76 -76 -143 -82
-149 -34 -34 -40 4 -188 1147 -81 622 -150 1140 -155 1153 -7 19 -16 22 -63
22 -64 0 -75 -10 -82 -76 -5 -49 -65 -1099 -144 -2529 -23 -407 -46 -751 -51
-764 -7 -17 -13 -21 -20 -14 -6 6 -32 281 -59 624 -27 338 -53 630 -57 649 -7
32 -12 36 -56 44 -32 6 -55 6 -65 0 -10 -6 -64 -102 -122 -215 -110 -213 -126
-233 -161 -192 -9 10 -62 91 -119 181 -56 89 -106 164 -110 167 -4 2 -25 7
-47 11 -38 6 -43 3 -132 -71 -51 -42 -108 -87 -128 -101 l-36 -24 -733 0
c-403 0 -740 3 -749 6 -9 4 -57 67 -106 140 -89 133 -90 134 -127 133 -20 0
-46 -4 -56 -8 -11 -4 -60 -79 -111 -167 -67 -118 -96 -160 -112 -162 -14 -2
-23 3 -27 15 -3 10 -71 542 -151 1183 -134 1076 -147 1166 -166 1183 -23 18
-60 21 -95 7z"/>
</g>
</svg>
